#N canvas 1345 53 1855 1027 10;
#X floatatom 346 228 5 0 0 0 - - -, f 5;
#X msg 1007 12 0.1;
#X text 1037 12 tau_inv;
#X obj 296 228 <;
#X floatatom 320 181 5 0 0 0 - - -, f 5;
#X obj 319 158 expr $f1 * $f2 + $f3 * (1 - $f1) * $f4;
#X obj 306 9 inlet;
#X obj 371 11 inlet;
#X obj 436 9 inlet;
#X obj 306 55 expr $f1 +$f2 + $f3;
#X obj 947 175 outlet;
#X obj 306 31 * 5;
#X obj 371 33 * 5;
#X obj 436 31 * 5;
#X obj 326 202 >=;
#X obj 227 140 bng 50 50 10 0 empty empty empty 17 7 0 10 -262144 -1
-1;
#X obj 326 250 expr $f1 \; if ($f1 > 0 \, $f1 \, 0);
#X obj 463 288 sel 1;
#X obj 781 183 f;
#X obj 811 183 + 1;
#X obj 781 206 mod 100;
#N canvas 0 50 450 250 (subpatch) 0;
#X array \$0_v_membrane 50 float 1;
#A 0 0 0 0 0 0 0 0 0 0 0 0 0 0 0 0 0 0 0 0 0 0 0 0 0 0 0 0 0 0 0 0
0 0 0 0 0 0 0 0 0 0 0 0 0 0 0 0 0 0 0;
#X array \$0_spike 50 float 1;
#A 0 -2 0 0 0 0 0 0 0 0 0 0 0 0 0 0 0 0 0 0 0 0 0 0 0 0 0 0 0 0 0 0
0 0 0 0 0 0 0 0 0 0 0 0 0 0 0 0 0 0 0;
#X array \$0_threshold 50 float 5;
#A 0 5.10204 0 0 0 0 0 0 0 0 0 0 0 0 0 0 0 0 0 0 0 0 0 0 0 0 0 0 0
0 0 0 0 0 0 0 0 0 0 0 0 0 0 0 0 0 0 0 0 0 0;
#X coords 0 12 50 -4 100 50 1 0 0;
#X restore 124 140 graph;
#X obj 933 220 expr ($f1 * 2) - 4;
#X obj 104 139 vsl 15 50 0 10 0 1 empty empty thr 0 -9 0 10 -262144
-1 -1 2500 1;
#X obj 948 197 outlet;
#X obj 946 153 outlet;
#X obj 529 9 receive \$1-clock;
#X obj 626 266 tabwrite \$0_threshold;
#X obj 664 287 tabwrite \$0_spike;
#X obj 612 245 tabwrite \$0_v_membrane;
#X text 98 124 comment;
#X floatatom 933 131 5 0 0 0 - - -, f 5;
#X msg 933 105 1;
#X msg 975 105 0;
#X msg 1007 36 15;
#X msg 1007 60 50;
#X text 1039 35 pulse latency;
#X text 1040 59 pulse width;
#X obj 932 83 delay;
#X obj 975 83 delay;
#X connect 0 0 3 1;
#X connect 0 0 14 1;
#X connect 0 0 27 0;
#X connect 1 0 5 0;
#X connect 3 0 5 3;
#X connect 4 0 5 2;
#X connect 4 0 3 0;
#X connect 4 0 14 0;
#X connect 4 0 29 0;
#X connect 5 0 4 0;
#X connect 6 0 11 0;
#X connect 7 0 12 0;
#X connect 8 0 13 0;
#X connect 9 0 5 1;
#X connect 11 0 9 0;
#X connect 12 0 9 1;
#X connect 13 0 9 2;
#X connect 14 0 16 0;
#X connect 16 1 17 0;
#X connect 17 0 15 0;
#X connect 17 0 38 0;
#X connect 17 0 39 0;
#X connect 18 0 19 0;
#X connect 18 0 20 0;
#X connect 19 0 18 1;
#X connect 20 0 29 1;
#X connect 20 0 27 1;
#X connect 20 0 28 1;
#X connect 22 0 28 0;
#X connect 23 0 0 0;
#X connect 26 0 23 0;
#X connect 26 0 18 0;
#X connect 26 0 31 0;
#X connect 26 0 1 0;
#X connect 26 0 34 0;
#X connect 26 0 35 0;
#X connect 31 0 22 0;
#X connect 31 0 10 0;
#X connect 31 0 24 0;
#X connect 31 0 25 0;
#X connect 32 0 31 0;
#X connect 33 0 31 0;
#X connect 34 0 38 1;
#X connect 35 0 39 1;
#X connect 38 0 32 0;
#X connect 39 0 33 0;
#X coords 0 0 1 1 180 95 1 100 100;
