#N canvas 65 81 1215 719 10;
#X obj 4 28 metro 10;
#X obj 4 3 bng 15 250 50 0 empty empty empty 17 7 0 10 -262144 -1 -1
;
#X msg 25 3 stop;
#X obj 4 51 send \$0-clock;
#X obj 65 76 randPulses \$0;
#X obj 230 295 neuromime \$0;
#X obj 327 141 neuromime \$0;
#X obj 128 452 neuromime \$0;
#X obj 94 140 neuromime \$0;
#X connect 0 0 3 0;
#X connect 1 0 0 0;
#X connect 2 0 0 0;
#X connect 4 0 8 0;
#X connect 4 1 8 1;
#X connect 4 2 6 0;
#X connect 5 0 7 0;
#X connect 5 1 7 1;
#X connect 6 0 8 2;
#X connect 6 1 5 1;
#X connect 6 2 5 2;
#X connect 7 0 6 2;
#X connect 8 0 5 0;
#X connect 8 1 6 1;
#X connect 8 2 7 2;
