#N canvas 65 53 1215 747 10;
#X obj 67 65 random 100;
#X obj 173 91 random 100;
#X obj 295 71 random 100;
#X obj 173 113 < 60;
#X obj 67 89 < 70;
#X obj 295 92 < 50;
#X obj 67 113 outlet;
#X obj 173 135 outlet;
#X obj 295 114 outlet;
#X obj 176 26 receive \$1-clock;
#X connect 0 0 4 0;
#X connect 1 0 3 0;
#X connect 2 0 5 0;
#X connect 3 0 7 0;
#X connect 4 0 6 0;
#X connect 5 0 8 0;
#X connect 9 0 0 0;
#X connect 9 0 1 0;
#X connect 9 0 2 0;
